<?xml version="1.0" encoding="UTF-8"?> <svg xmlns="http://www.w3.org/2000/svg" id="Camada_2" data-name="Camada 2" viewBox="0 0 18.28 26.58"><defs><style> .cls-1 { fill: #ef7d00; } </style></defs><g id="Camada_2-2" data-name="Camada 2"><path class="cls-1" d="M9.14,0C4.09,0,0,4.09,0,9.14c0,3.85,5.31,12.72,7.84,16.72.28.45.78.72,1.3.72.53,0,1.02-.27,1.3-.72,2.53-4,7.84-12.87,7.84-16.71,0-5.05-4.09-9.14-9.14-9.14ZM9.14,14.72c-2.86,0-5.17-2.31-5.17-5.17s2.31-5.17,5.17-5.17,5.17,2.31,5.17,5.17c0,2.86-2.31,5.17-5.17,5.17Z"></path></g></svg> 