<?xml version="1.0" encoding="UTF-8"?> <svg xmlns="http://www.w3.org/2000/svg" id="Camada_2" data-name="Camada 2" viewBox="0 0 30.42 23.25"><defs><style> .cls-1 { fill: #ef7d00; } </style></defs><g id="Camada_2-2" data-name="Camada 2"><path class="cls-1" d="M27.74,0H2.67C1.2,0,0,1.34,0,2.98v17.28c0,1.64,1.2,2.98,2.67,2.98h25.07c1.47,0,2.67-1.34,2.67-2.98V2.98c0-1.64-1.2-2.98-2.67-2.98ZM27.4,1.99l-.36.33-10.77,10c-.61.57-1.51.57-2.12,0L3.38,2.32l-.36-.33h24.37ZM1.78,3.42l8.77,8.15L1.78,18.09V3.42ZM27.74,21.26H2.67c-.43,0-.79-.34-.87-.8l10.19-7.56,1.02.95c.64.59,1.42.89,2.2.89s1.56-.3,2.2-.89l1.02-.95,10.19,7.56c-.08.45-.44.8-.87.8ZM28.64,18.09l-8.77-6.51L28.64,3.42v14.66Z"></path></g></svg> 