<?xml version="1.0" encoding="UTF-8"?> <svg xmlns="http://www.w3.org/2000/svg" id="Camada_2" data-name="Camada 2" viewBox="0 0 26.57 26.58"><defs><style> .cls-1 { fill: #ef7d00; } </style></defs><g id="Camada_2-2" data-name="Camada 2"><g><path class="cls-1" d="M20.2,17.58c-.87-.86-1.95-.86-2.81,0-.66.65-1.32,1.31-1.96,1.97-.18.18-.33.22-.54.1-.43-.23-.88-.42-1.29-.67-1.91-1.2-3.51-2.74-4.92-4.48-.7-.86-1.33-1.79-1.76-2.83-.09-.21-.07-.35.1-.52.66-.64,1.3-1.29,1.95-1.94.9-.91.9-1.97,0-2.88-.51-.52-1.03-1.03-1.54-1.55-.53-.53-1.06-1.07-1.59-1.59-.87-.85-1.95-.85-2.81,0-.66.65-1.3,1.32-1.97,1.96C.4,5.75.09,6.47.02,7.32c-.11,1.38.23,2.68.71,3.94.97,2.62,2.46,4.95,4.25,7.08,2.43,2.89,5.33,5.17,8.72,6.82,1.53.74,3.11,1.31,4.83,1.4,1.18.07,2.21-.23,3.04-1.16.56-.63,1.2-1.21,1.8-1.81.88-.9.89-1.98.01-2.86-1.05-1.06-2.11-2.11-3.16-3.16Z"></path><path class="cls-1" d="M19.15,13.17l2.04-.35c-.32-1.87-1.21-3.57-2.55-4.92-1.42-1.42-3.22-2.32-5.2-2.59l-.29,2.05c1.53.22,2.93.91,4.03,2.01,1.04,1.04,1.72,2.36,1.97,3.8Z"></path><path class="cls-1" d="M22.34,4.3C19.98,1.95,17,.46,13.71,0l-.29,2.05c2.84.4,5.42,1.69,7.45,3.72,1.93,1.93,3.2,4.37,3.66,7.05l2.04-.35c-.54-3.11-2-5.93-4.24-8.17Z"></path></g></g></svg> 