<?xml version="1.0" encoding="UTF-8"?> <svg xmlns="http://www.w3.org/2000/svg" id="Camada_2" data-name="Camada 2" viewBox="0 0 27.9 27.9"><defs><style> .cls-1 { fill: #ef7d00; } </style></defs><g id="Camada_2-2" data-name="Camada 2"><path class="cls-1" d="M23.81,4.09C18.36-1.36,9.54-1.36,4.09,4.09c-5.45,5.45-5.45,14.27,0,19.72,5.45,5.45,14.27,5.45,19.72,0,5.45-5.45,5.45-14.27,0-19.72ZM23.23,21.82c-.65-.58-1.35-1.1-2.08-1.54.49-1.68.77-3.52.84-5.44h4.1c-.19,2.59-1.18,5.01-2.86,6.99h0ZM1.81,14.84h4.1c.07,1.92.36,3.76.84,5.44-.73.44-1.43.96-2.08,1.54-1.68-1.97-2.67-4.4-2.86-6.99ZM4.67,6.08c.65.58,1.35,1.1,2.08,1.54-.49,1.68-.77,3.52-.84,5.44H1.81c.19-2.59,1.18-5.01,2.86-6.99ZM13.06,7.8c-1.45-.1-2.85-.46-4.14-1.05.75-1.94,2.14-4.27,4.14-4.84v5.89ZM13.06,9.58v3.48h-5.37c.06-1.62.29-3.18.67-4.61,1.47.64,3.06,1.03,4.7,1.13ZM13.06,14.84v3.48c-1.64.1-3.22.49-4.7,1.13-.38-1.43-.61-2.98-.67-4.61h5.37ZM13.06,20.1v5.89c-2-.58-3.39-2.9-4.14-4.84,1.3-.59,2.69-.95,4.14-1.05ZM14.84,20.1c1.45.1,2.85.46,4.14,1.05-.75,1.94-2.14,4.27-4.14,4.84v-5.89ZM14.84,18.32v-3.48h5.37c-.06,1.62-.29,3.18-.67,4.61-1.47-.64-3.06-1.03-4.7-1.13h0ZM14.84,13.06v-3.48c1.64-.1,3.22-.49,4.7-1.13.38,1.43.61,2.98.67,4.61h-5.37ZM14.84,7.8V1.91c2,.58,3.39,2.9,4.14,4.84-1.3.59-2.69.95-4.14,1.05ZM18.83,2.8c1.14.5,2.2,1.17,3.15,2.01-.45.4-.93.76-1.43,1.09-.44-1.1-1.01-2.16-1.72-3.1ZM7.35,5.89c-.5-.32-.98-.69-1.43-1.09.95-.84,2.01-1.51,3.15-2.01-.71.93-1.28,2-1.72,3.1h0ZM7.35,22.01c.44,1.1,1.01,2.16,1.72,3.1-1.14-.5-2.2-1.17-3.15-2.01.45-.4.93-.76,1.43-1.09ZM20.55,22.01c.5.32.98.69,1.43,1.09-.95.84-2.01,1.51-3.15,2.01.71-.93,1.28-2,1.72-3.1h0ZM21.99,13.06c-.07-1.92-.36-3.76-.84-5.44.73-.44,1.43-.96,2.08-1.54,1.68,1.97,2.67,4.4,2.86,6.99h-4.1Z"></path></g></svg> 