<?xml version="1.0" encoding="UTF-8"?> <svg xmlns="http://www.w3.org/2000/svg" id="Camada_2" data-name="Camada 2" viewBox="0 0 26.57 26.63"><defs><style> .cls-1 { fill: #ef7d00; } </style></defs><g id="Camada_2-2" data-name="Camada 2"><g><path class="cls-1" d="M.11,26.46c-.38-.38,1.61-5.45,1.51-6.5-.05-.51-.87-1.82-1.1-2.69C-3.28,2.53,14.83-6.17,23.73,5.23c7.68,9.84-1.36,23.63-13.42,21.09-1.15-.24-2.75-1.11-3.66-1.16-1.09-.05-6.17,1.67-6.54,1.3ZM20.75,20.92c5-5,3.65-13.89-2.69-17.04C10.05-.1,1.36,6.62,2.74,15.37c.44,2.79,2.89,4.32.88,7.58,1.22.15,2.48-.75,3.65-.63.97.1,2.64,1.31,3.94,1.52,3.41.53,7.1-.46,9.55-2.91Z"></path><path class="cls-1" d="M15.38,16.51c.11-.07.34-.8.67-1.09.89-.77,3.81.75,3.88,1.04.33,1.39-.9,2.85-2.24,3.17-4.36,1.02-12.04-5.69-11.13-10.17.29-1.42,2.15-3.2,3.29-1.83.09.11,1.11,2.58,1.12,2.75.06,1.03-1.06,1.18-.98,2.18.12,1.4,4.17,4.67,5.38,3.96Z"></path></g></g></svg> 